<?xml version="1.0" encoding="utf-8"?>
<!-- Generator: Adobe Illustrator 16.0.0, SVG Export Plug-In . SVG Version: 6.00 Build 0)  -->
<!DOCTYPE svg PUBLIC "-//W3C//DTD SVG 1.1//EN" "http://www.w3.org/Graphics/SVG/1.1/DTD/svg11.dtd">
<svg version="1.1" id="Layer_1" xmlns="http://www.w3.org/2000/svg" xmlns:xlink="http://www.w3.org/1999/xlink" x="0px" y="0px"
	 width="400px" height="200px" viewBox="0 0 400 200" enable-background="new 0 0 400 200" xml:space="preserve">
<g>
	<path d="M58.416,92.327l-0.269-5.923c-1.978-1.31-4.044-2.285-6.208-2.93c-2.163-0.644-4.421-0.965-6.771-0.965
		c-5.991,0-10.791,1.82-14.397,5.458c-3.605,3.64-5.408,8.51-5.408,14.611c0,4.284,0.916,8.103,2.745,11.451
		c1.829,3.35,4.431,6.004,7.807,7.955c3.371,1.955,6.933,2.933,10.682,2.933c2.976,0,5.917-0.344,8.824-1.034
		c2.172-0.508,4.36-1.578,6.555-3.193l0.699,0.665c-0.465,1.021-0.898,2.05-1.299,3.093c-2.594,1.29-5.208,2.259-7.836,2.914
		c-2.629,0.652-5.278,0.982-7.938,0.982c-5.46,0-10.261-1.056-14.396-3.163c-4.14-2.107-7.32-5.022-9.54-8.736
		c-2.219-3.718-3.327-7.915-3.327-12.601c0-4.682,1.121-8.87,3.362-12.564c2.241-3.694,5.408-6.558,9.505-8.588
		c4.092-2.031,9.123-3.045,15.092-3.045c3.132,0,6.794,0.51,10.986,1.53c2.086,0.489,3.783,0.854,5.09,1.097
		c-0.998,2.377-1.571,5.726-1.729,10.052H58.416z"/>
	<path d="M88.387,116.424H74.907l-1.578,3.754c-1.041,2.484-1.563,4.005-1.563,4.566c0,0.356,0.1,0.611,0.29,0.769
		c0.195,0.156,0.691,0.277,1.482,0.373l2.237,0.257v1.468c-1.491-0.114-3.167-0.165-5.035-0.165c-2.233,0-4.2,0.051-5.895,0.165
		v-1.468l0.699-0.027c1.089-0.031,1.79-0.144,2.11-0.335c0.318-0.195,0.656-0.673,1.014-1.432c1.103-2.238,2.228-4.654,3.379-7.247
		l6.407-14.518c1.707-3.853,2.872-6.649,3.493-8.388h1.585l11.79,27.423c0.79,1.864,1.32,2.989,1.586,3.367
		c0.266,0.382,0.565,0.651,0.907,0.816c0.343,0.161,1.113,0.274,2.308,0.34v1.468c-2.021-0.114-3.944-0.165-5.777-0.165
		c-1.713,0-3.984,0.051-6.83,0.165v-1.468l2.308-0.145c0.824-0.06,1.312-0.144,1.468-0.256c0.234-0.169,0.353-0.387,0.353-0.651
		c0-0.278-0.235-1.008-0.7-2.19L88.387,116.424z M75.776,114.514h11.737l-5.865-13.998L75.776,114.514z"/>
	<path d="M119.442,110.786c1.521,2.189,3.41,4.739,5.661,7.641l4.474,5.804c0.791,0.995,1.32,1.559,1.586,1.698
		c0.261,0.143,0.535,0.214,0.813,0.214h0.608v1.468c-1.289-0.114-2.415-0.165-3.38-0.165c-0.887,0-1.816,0.051-2.798,0.165
		l-8.244-11.139c-1.538-2.05-3.186-4.058-4.94-6.012l0.23-0.791c0.903,0.078,1.569,0.112,2.003,0.112
		c2.598,0,4.626-0.667,6.095-2.002c1.468-1.334,2.202-3.123,2.202-5.359c0-2.004-0.621-3.568-1.863-4.696
		c-1.242-1.125-3.037-1.688-5.382-1.688c-1.634,0-3.271,0.302-4.919,0.908c-0.186,2.469-0.277,5.111-0.277,7.919v11.255
		c0,5.487,0.13,8.528,0.396,9.124c0.265,0.599,1.116,0.9,2.563,0.9h1.817v1.468c-2.577-0.114-4.715-0.165-6.408-0.165
		c-1.335,0-3.749,0.051-7.246,0.165v-1.468h1.746c1.338,0,2.129-0.292,2.38-0.875c0.248-0.586,0.369-3.649,0.369-9.192v-11.211
		c0-4.813-0.143-7.506-0.43-8.082c-0.286-0.576-1.22-0.863-2.806-0.863h-1.26v-1.468c2.889,0.108,5.095,0.163,6.615,0.163
		c1.025,0,2.503-0.037,4.432-0.115c2.232-0.079,3.845-0.118,4.821-0.118c2.685,0,4.727,0.285,6.118,0.852
		c1.388,0.567,2.444,1.386,3.166,2.457c0.726,1.073,1.086,2.354,1.086,3.844c0,2.191-0.791,4.125-2.368,5.801
		C124.726,109.018,122.439,110.164,119.442,110.786z"/>
	<path d="M143.51,111.762v5.722l0.026,3.29c0,2.055,0.021,3.558,0.068,4.504c2.271,0.17,4.705,0.257,7.303,0.257
		c1.742,0,3.206-0.079,4.388-0.231c0.764-0.095,1.572-0.295,2.429-0.608c0.386-1.367,0.786-3.076,1.19-5.125h1.537
		c-0.422,3.415-0.629,5.686-0.629,6.824l0.048,1.052c-1.791,0.155-3.546,0.233-5.27,0.233l-3.658-0.069
		c-4.037-0.114-7.003-0.165-8.9-0.165c-1.817,0-4.232,0.051-7.246,0.165v-1.468h0.725c1.351,0,2.198-0.136,2.55-0.401
		c0.348-0.26,0.582-0.881,0.7-1.864c0.117-0.978,0.174-3.135,0.174-6.477v-12.788c0-2.1-0.053-3.815-0.153-5.151
		c-0.1-1.335-0.208-2.132-0.326-2.389c-0.115-0.256-0.282-0.454-0.498-0.595c-0.218-0.139-0.887-0.263-2.004-0.372l-1.793-0.187
		v-1.468h2.515l2.468,0.082c1.386,0.055,2.433,0.081,3.145,0.081l8.95-0.135l4.238-0.028c1.447-0.016,2.906,0.039,4.385,0.163
		c-0.591,1.846-0.917,4.247-0.982,7.2h-1.582c0-1.708-0.086-3.13-0.255-4.264c-1.834-0.684-4.089-1.025-6.76-1.025
		c-2.129,0-4.357,0.093-6.687,0.278c0.013,1.46,0,2.917-0.048,4.375l-0.047,3.582v4.718c1.537,0.114,2.896,0.165,4.078,0.165
		c3.697,0,5.791-0.13,6.277-0.382c0.492-0.261,0.735-1.05,0.735-2.39v-1.511h1.585c-0.109,2.342-0.16,4.214-0.16,5.613
		c0,1.478,0.051,3.215,0.16,5.218h-1.585v-1.353c0-1.49-0.292-2.402-0.874-2.735c-0.583-0.335-2.637-0.505-6.16-0.505
		C146.259,111.597,144.908,111.659,143.51,111.762z"/>
	<path d="M179.161,96.572c-0.173,2.331-0.256,4.785-0.256,7.363v13.28c0,4.94,0.121,7.663,0.374,8.168
		c0.247,0.507,1.134,0.76,2.653,0.76h1.746v1.468c-2.75-0.114-5.078-0.165-6.989-0.165c-1.924,0-4.239,0.051-6.942,0.165v-1.468
		h1.955c1.025,0,1.694-0.14,2.008-0.41c0.308-0.273,0.503-0.803,0.582-1.598c0.151-1.816,0.23-4.162,0.23-7.033v-13.307
		c0-2.625-0.053-5.032-0.161-7.224h-2.372c-3.827,0-5.935,0.091-6.321,0.27c-0.391,0.179-0.642,0.873-0.769,2.085l-0.326,3.121
		h-1.468l0.048-2.771c0-1.119-0.091-2.726-0.277-4.824c8.389,0.108,13.318,0.163,14.795,0.163l12.885-0.163
		c-0.295,2.625-0.469,5.158-0.513,7.595h-1.469l-0.234-3.051c-0.091-1.056-0.225-1.681-0.394-1.876
		c-0.175-0.194-0.553-0.313-1.145-0.361c-1.706-0.124-3.648-0.187-5.825-0.187H179.161z"/>
	<path d="M215.77,116.424H202.29l-1.578,3.754c-1.042,2.484-1.563,4.005-1.563,4.566c0,0.356,0.101,0.611,0.291,0.769
		c0.195,0.156,0.69,0.277,1.482,0.373l2.237,0.257v1.468c-1.49-0.114-3.167-0.165-5.035-0.165c-2.233,0-4.201,0.051-5.895,0.165
		v-1.468l0.698-0.027c1.09-0.031,1.79-0.144,2.111-0.335c0.317-0.195,0.656-0.673,1.012-1.432c1.104-2.238,2.229-4.654,3.38-7.247
		l6.407-14.518c1.713-3.853,2.877-6.649,3.494-8.388h1.59l11.79,27.423c0.79,1.864,1.319,2.989,1.58,3.367
		c0.261,0.382,0.564,0.651,0.912,0.816c0.338,0.161,1.104,0.274,2.304,0.34v1.468c-2.016-0.114-3.946-0.165-5.779-0.165
		c-1.711,0-3.986,0.051-6.828,0.165v-1.468l2.312-0.145c0.816-0.06,1.311-0.144,1.469-0.256c0.232-0.169,0.347-0.387,0.347-0.651
		c0-0.278-0.234-1.008-0.705-2.19L215.77,116.424z M203.159,114.514H214.9l-5.865-13.998L203.159,114.514z"/>
	<path d="M243.12,109.248l15.891,14.797l1.442,1.372c0.295,0.295,0.59,0.491,0.895,0.582c0.305,0.097,0.808,0.145,1.502,0.145v1.468
		c-1.268-0.114-2.389-0.165-3.353-0.165c-1.008,0-2.112,0.051-3.31,0.165l-16.047-15.24c-0.549-0.513-0.888-0.774-1.009-0.774
		c-0.322,0-0.486,0.304-0.486,0.913v7.107c0,3.462,0.068,5.356,0.208,5.686c0.235,0.557,1.078,0.84,2.528,0.84h1.755v1.468
		c-2.527-0.114-4.777-0.165-6.741-0.165c-2.051,0-4.268,0.051-6.629,0.165v-1.468h1.884c1.244,0,1.991-0.231,2.242-0.692
		c0.242-0.456,0.374-2.433,0.374-5.93v-15.586c0-4.27-0.132-6.674-0.374-7.211c-0.251-0.537-0.998-0.804-2.242-0.804h-1.884v-1.468
		c2.849,0.108,4.908,0.163,6.186,0.163c0.922,0,3.31-0.054,7.185-0.163v1.468l-1.842,0.07c-1.067,0.048-1.738,0.191-2.017,0.433
		c-0.285,0.24-0.46,0.718-0.528,1.431c-0.07,0.715-0.104,2.773-0.104,6.174v6.293h0.322c1.275-1.043,2.371-1.995,3.292-2.858
		c0.913-0.86,2.415-2.373,4.517-4.528l6.612-6.852v-1.631c1.712,0.108,3.129,0.163,4.249,0.163c1.165,0,2.449-0.054,3.866-0.163
		v1.468h-1.26c-1.121,0-2.068,0.213-2.841,0.641c-0.782,0.428-2.572,1.931-5.388,4.509L243.12,109.248z"/>
	<path d="M273.668,111.762v5.722l0.016,3.29c0,2.055,0.027,3.558,0.079,4.504c2.268,0.17,4.701,0.257,7.299,0.257
		c1.746,0,3.206-0.079,4.388-0.231c0.764-0.095,1.572-0.295,2.424-0.608c0.391-1.367,0.79-3.076,1.189-5.125h1.538
		c-0.418,3.415-0.626,5.686-0.626,6.824l0.043,1.052c-1.781,0.155-3.534,0.233-5.265,0.233l-3.657-0.069
		c-4.041-0.114-7.002-0.165-8.896-0.165c-1.816,0-4.231,0.051-7.246,0.165v-1.468h0.722c1.347,0,2.196-0.136,2.554-0.401
		c0.348-0.26,0.582-0.881,0.694-1.864c0.113-0.978,0.175-3.135,0.175-6.477v-12.788c0-2.1-0.053-3.815-0.147-5.151
		c-0.104-1.335-0.21-2.132-0.331-2.389c-0.112-0.256-0.277-0.454-0.494-0.595c-0.227-0.139-0.887-0.263-2.007-0.372l-1.801-0.187
		v-1.468h2.521l2.467,0.082c1.382,0.055,2.433,0.081,3.146,0.081l8.948-0.135l4.24-0.028c1.45-0.016,2.91,0.039,4.378,0.163
		c-0.59,1.846-0.912,4.247-0.972,7.2h-1.591c0-1.708-0.078-3.13-0.251-4.264c-1.833-0.684-4.084-1.025-6.761-1.025
		c-2.129,0-4.351,0.093-6.681,0.278c0.009,1.46,0,2.917-0.052,4.375l-0.043,3.582v4.718c1.537,0.114,2.893,0.165,4.075,0.165
		c3.699,0,5.795-0.13,6.281-0.382c0.485-0.261,0.729-1.05,0.729-2.39v-1.511h1.59c-0.112,2.342-0.164,4.214-0.164,5.613
		c0,1.478,0.052,3.215,0.164,5.218h-1.59v-1.353c0-1.49-0.286-2.402-0.868-2.735c-0.582-0.335-2.641-0.505-6.169-0.505
		C276.413,111.597,275.065,111.659,273.668,111.762z"/>
	<path d="M310.618,110.786c1.521,2.189,3.415,4.739,5.665,7.641l4.475,5.804c0.789,0.995,1.32,1.559,1.581,1.698
		c0.27,0.143,0.539,0.214,0.816,0.214h0.607v1.468c-1.294-0.114-2.414-0.165-3.38-0.165c-0.885,0-1.815,0.051-2.797,0.165
		l-8.245-11.139c-1.537-2.05-3.188-4.058-4.943-6.012l0.234-0.791c0.904,0.078,1.573,0.112,2.008,0.112
		c2.589,0,4.622-0.667,6.09-2.002c1.468-1.334,2.198-3.123,2.198-5.359c0-2.004-0.616-3.568-1.858-4.696
		c-1.243-1.125-3.042-1.688-5.387-1.688c-1.625,0-3.268,0.302-4.918,0.908c-0.184,2.469-0.279,5.111-0.279,7.919v11.255
		c0,5.487,0.131,8.528,0.401,9.124c0.26,0.599,1.119,0.9,2.563,0.9h1.815v1.468c-2.579-0.114-4.718-0.165-6.403-0.165
		c-1.338,0-3.752,0.051-7.255,0.165v-1.468h1.755c1.33,0,2.129-0.292,2.372-0.875c0.252-0.586,0.375-3.649,0.375-9.192v-11.211
		c0-4.813-0.14-7.506-0.435-8.082c-0.287-0.576-1.218-0.863-2.808-0.863h-1.26v-1.468c2.895,0.108,5.101,0.163,6.621,0.163
		c1.024,0,2.502-0.037,4.431-0.115c2.233-0.079,3.841-0.118,4.822-0.118c2.685,0,4.727,0.285,6.116,0.852
		c1.391,0.567,2.442,1.386,3.163,2.457c0.729,1.073,1.085,2.354,1.085,3.844c0,2.191-0.79,4.125-2.363,5.801
		C315.91,109.018,313.616,110.164,310.618,110.786z"/>
	<path d="M323.346,140.625c0.063-0.978,0.097-1.772,0.097-2.394l-0.097-2.833l0.696-0.364c1.198,0.755,2.414,1.134,3.665,1.134
		c1.773,0,3.017-0.608,3.728-1.816c0.704-1.211,1.062-4.444,1.062-9.704v-28.69c0-7.325-0.209-11.413-0.636-12.266
		c-0.416-0.853-1.736-1.281-3.952-1.281h-2.234v-2.098c2.399,0.156,5.44,0.235,9.124,0.235c4.075,0,7.541-0.079,10.383-0.235v2.098
		l-2.208,0.132c-1.806,0.157-2.893,0.356-3.267,0.6c-0.364,0.243-0.616,0.66-0.746,1.249c-0.14,0.586-0.21,2.478-0.21,5.673v28.658
		c0,4.752-0.304,8.159-0.929,10.221c-0.947,3.285-2.711,6.078-5.29,8.388c-2.581,2.308-5.049,3.463-7.395,3.463
		C324.719,140.795,324.119,140.738,323.346,140.625z"/>
	<path d="M378.77,82.542c-0.626,2.308-0.956,5.372-1,9.188h-2.303v-2.663c0-1.73-0.226-2.908-0.694-3.528
		c-0.469-0.622-1.686-1.282-3.649-1.981c-1.963-0.697-4.031-1.047-6.204-1.047c-3.553,0-6.342,0.897-8.374,2.691
		c-2.025,1.794-3.042,4.099-3.042,6.914c0,1.773,0.418,3.294,1.242,4.568c0.835,1.275,1.955,2.193,3.363,2.758
		c1.417,0.564,4.405,1.064,8.974,1.494c4.572,0.446,7.665,1.035,9.271,1.767c1.606,0.73,2.893,1.911,3.857,3.526
		c0.965,1.625,1.451,3.544,1.451,5.766c0,4.46-1.868,8.301-5.596,11.52c-3.727,3.219-8.696,4.83-14.908,4.83
		c-2.129,0-4.274-0.217-6.438-0.652c-2.163-0.429-4.345-1.068-6.541-1.912c0.398-2.663,0.58-6.081,0.563-10.251h2.259v1.664
		c0,2.154,0.113,3.484,0.339,3.992c0.218,0.514,0.739,1.056,1.564,1.634c1.217,0.864,2.676,1.524,4.36,1.98
		c1.686,0.456,3.501,0.682,5.457,0.682c4.196,0,7.438-0.986,9.722-2.963c2.286-1.977,3.424-4.483,3.424-7.523
		c0-1.773-0.381-3.276-1.164-4.509c-0.774-1.235-1.859-2.147-3.258-2.747c-1.399-0.599-3.988-1.051-7.759-1.363
		c-5.013-0.4-8.42-1-10.218-1.799c-1.799-0.799-3.206-2.059-4.231-3.777c-1.017-1.72-1.528-3.855-1.528-6.407
		c0-4.329,1.563-7.867,4.691-10.619c3.136-2.751,7.463-4.126,12.989-4.126c2.215,0,4.439,0.238,6.673,0.714
		C374.286,80.84,376.528,81.567,378.77,82.542z"/>
</g>
<path d="M222.477,151.459c0,0-0.708,0.326-1.934,0.801c-0.616,0.232-1.354,0.529-2.216,0.807c-0.434,0.152-0.89,0.301-1.367,0.465
	c-0.479,0.161-0.978-0.056-1.508,0.004c-4.213,0-9.826,0-15.457,0c-5.617,0-11.237,0-15.442,0c-0.535-0.074-1.038,0.157-1.517-0.033
	c-0.479-0.162-0.935-0.314-1.364-0.465c-0.855-0.275-1.603-0.566-2.22-0.795c-1.225-0.479-1.929-0.783-1.929-0.783
	s0.704-0.316,1.929-0.794c0.617-0.23,1.364-0.509,2.22-0.799c0.43-0.135,0.886-0.288,1.364-0.456
	c0.479-0.192,0.981,0.034,1.517-0.036c4.205,0,9.825,0,15.442,0c5.631,0,11.244,0,15.457,0c0.53,0.057,1.029-0.147,1.508,0.014
	c0.478,0.155,0.934,0.308,1.367,0.451c0.861,0.282,1.6,0.568,2.216,0.807C221.769,151.125,222.477,151.459,222.477,151.459z"/>
<g id="TheSword">
	<animateTransform id="movedown"
										attributeName="transform"
	                  attributeType="XML"
	                  type="translate"
	                  from="0 -7"
	                  to="0 3"
	                  dur="3s"
										begin="0s;moveup.end"
										keySplines="
											0.4, 0.0, 0.2, 1;
											0.4, 0.0, 0.2, 1;
											0.4, 0.0, 0.2, 1;
											0.4, 0.0, 0.2, 1;
											0.4, 0.0, 0.2, 1;
											0.4, 0.0, 0.2, 1"
										keyTimes="
											0;0.22;0.33;0.55;0.66;0.88;1"
										calcMode="spline"/>
	<animateTransform id="moveup"
										attributeName="transform"
									  attributeType="XML"
									  type="translate"
									  from="0 3"
									  to="0 -7"
									  dur="3s"
										begin="movedown.end"
										keySplines="
											0.4, 0.0, 0.2, 1;
											0.4, 0.0, 0.2, 1;
											0.4, 0.0, 0.2, 1;
											0.4, 0.0, 0.2, 1;
											0.4, 0.0, 0.2, 1;
											0.4, 0.0, 0.2, 1"
										keyTimes="
											0;0.22;0.33;0.55;0.66;0.88;1"
										calcMode="spline"/>
	<polygon points="200,40.155 190.475,47.679 200,57.202 209.521,47.679 	"/>
	<polygon points="212.963,49.69 212.963,57.41 212.963,65.134 205.247,57.41 	"/>
	<polygon points="187.032,49.69 187.032,57.41 187.032,65.134 194.753,57.41 	"/>
	<polygon points="203.789,77.271 203.789,62.037 203.786,62.037 203.789,62.037 200,59.043 196.213,62.037 196.214,62.037
		196.214,62.037 196.214,77.271 196.262,77.271 196.213,77.319 200,80.312 203.789,77.319 203.737,77.271 	"/>
	<line fill="none" x1="18.5" y1="48.679" x2="381.5" y2="48.679"/>
</g>
</svg>
