<?xml version="1.0" encoding="utf-8"?>
<!-- Generator: Adobe Illustrator 16.0.0, SVG Export Plug-In . SVG Version: 6.00 Build 0)  -->
<!DOCTYPE svg PUBLIC "-//W3C//DTD SVG 1.1//EN" "http://www.w3.org/Graphics/SVG/1.1/DTD/svg11.dtd">
<svg version="1.1" id="Layer_1" xmlns="http://www.w3.org/2000/svg" xmlns:xlink="http://www.w3.org/1999/xlink" x="0px" y="0px"
	 width="317.219px" height="138.598px" viewBox="91.391 180.701 317.219 138.598"
	 enable-background="new 91.391 180.701 317.219 138.598" xml:space="preserve">
<g>
	<path fill="#1F2020" d="M117.488,273.405c4.554,0,8.286-0.933,11.193-2.799c2.908-1.864,4.846-4.396,5.815-7.596l1.963,0.872
		c-0.534,1.744-1.091,4.992-1.672,9.741c-5.961,2.229-11.801,3.344-17.519,3.344c-7.948,0-14.247-2.168-18.899-6.506
		c-4.651-4.336-6.978-10.358-6.978-18.063c0-7.704,2.301-14.089,6.905-19.152s10.903-7.597,18.899-7.597
		c2.229,0,4.725,0.183,7.487,0.546c2.762,0.362,4.651,0.545,5.669,0.545c1.019,0,2.108-0.146,3.271-0.437v1.09
		c0,3.538,0.291,6.954,0.872,10.249l-1.962,0.872c-1.939-6.348-7.076-9.521-15.411-9.521c-4.846,0-9.013,1.721-12.502,5.161
		c-1.745,1.695-3.114,3.948-4.107,6.76c-0.994,2.811-1.49,5.827-1.49,9.05c0,3.224,0.339,6.143,1.018,8.759
		c0.679,2.617,1.72,5.041,3.126,7.271c1.405,2.229,3.344,4.021,5.815,5.378C111.455,272.727,114.289,273.405,117.488,273.405z"/>
	<path fill="#1F2020" d="M166.19,276.749c-2.907,0-4.604-1.574-5.088-4.726c-4.265,3.15-7.948,4.726-11.049,4.726
		c-2.084,0-3.853-0.644-5.307-1.926c-1.453-1.283-2.181-3.283-2.181-5.997s1.441-5.161,4.325-7.343
		c2.883-2.181,7.547-3.488,13.993-3.926v-6.76c0-1.356-0.498-2.399-1.49-3.126c-0.994-0.727-2.388-1.09-4.18-1.09
		c-1.794,0-3.224,0.497-4.289,1.49c-1.066,0.992-1.599,2.266-1.599,3.814c0,0.582,0.072,1.236,0.218,1.963l-1.6,0.728
		c-0.97-0.532-1.878-1.259-2.726-2.182c-0.849-0.92-1.272-1.586-1.272-1.999c0-0.41,0.327-1.018,0.981-1.815
		c0.654-0.8,1.538-1.66,2.653-2.581c1.114-0.92,2.604-1.708,4.471-2.362c1.865-0.654,3.962-0.98,6.287-0.98
		c2.326,0,4.217,0.569,5.67,1.708c1.454,1.14,2.181,3.197,2.181,6.179c0,2.98,0.146,9.269,0.437,18.863
		c0.048,2.325,0.92,3.489,2.617,3.489c0.727,0,1.478-0.192,2.253-0.582l0.727,1.892C170.381,275.901,168.37,276.749,166.19,276.749z
		 M151.797,263.083c-2.084,1.406-3.125,2.933-3.125,4.58c0,1.646,0.423,2.847,1.271,3.597c0.848,0.752,2.218,1.127,4.107,1.127
		s4.167-0.799,6.833-2.397v-9.159C156.909,260.928,153.88,261.679,151.797,263.083z"/>
	<path fill="#1F2020" d="M197.082,242.222c0.387,0,1.029,0.569,1.926,1.708c0.897,1.14,1.49,2.267,1.781,3.38l-1.091,1.381
		c-1.744-0.678-3.562-1.018-5.451-1.018c-1.889,0-3.61,0.788-5.161,2.362c-1.552,1.575-2.326,4.106-2.326,7.597
		c0.048,8.529,0.266,13.496,0.654,14.902c0.048,0.387,0.738,0.737,2.071,1.053c1.333,0.316,2.727,0.521,4.18,0.619l-0.218,2.106
		c-2.326-0.146-5.27-0.219-8.832-0.219s-6.506,0.072-8.831,0.219l0.218-2.106c0.969-0.099,1.986-0.303,3.053-0.619
		c1.065-0.314,1.623-0.641,1.672-0.98c0.388-1.694,0.582-5.088,0.582-10.177c0-8.236-0.194-13.276-0.582-15.119l-4.652-1.381
		l-0.146-1.891c3.102,0,6.3-0.437,9.596-1.309l1.381,0.653c-0.098,0.729-0.146,2.715-0.146,5.961
		c1.405-2.326,3.186-4.095,5.343-5.307C194.259,242.828,195.919,242.222,197.082,242.222z"/>
	<path fill="#1F2020" d="M218.671,276.749c-5.137,0-9.014-1.465-11.63-4.396c-2.617-2.932-3.926-6.833-3.926-11.704
		c0-4.87,1.441-9.087,4.325-12.647c2.883-3.563,7.232-5.343,13.048-5.343c2.955,0,5.536,1.043,7.741,3.126
		c2.205,2.084,3.308,5.186,3.308,9.304l-2.472,2.98c-0.29-0.049-2.58-0.072-6.869-0.072c-4.288,0-8.59,0.17-12.902,0.509v0.654
		c0,4.41,0.92,7.718,2.763,9.922c1.841,2.206,4.361,3.307,7.56,3.307c3.199,0,6.565-0.772,10.104-2.326l0.873,2.182
		C226.861,275.247,222.887,276.749,218.671,276.749z M224.995,252.834c0-2.229-0.63-3.889-1.89-4.979
		c-1.261-1.09-2.666-1.636-4.216-1.636c-2.278,0-4.241,0.897-5.889,2.69s-2.738,3.997-3.271,6.613l15.047-0.581
		C224.923,254.215,224.995,253.513,224.995,252.834z"/>
	<path fill="#1F2020" d="M301.174,276.749c-2.906,0-4.604-1.574-5.088-4.726c-4.264,3.15-7.947,4.726-11.049,4.726
		c-2.084,0-3.853-0.644-5.307-1.926c-1.453-1.283-2.181-3.283-2.181-5.997s1.44-5.161,4.324-7.343
		c2.883-2.181,7.547-3.488,13.991-3.926v-6.76c0-1.356-0.496-2.399-1.487-3.126c-0.994-0.727-2.39-1.09-4.181-1.09
		c-1.795,0-3.225,0.497-4.289,1.49c-1.065,0.992-1.6,2.266-1.6,3.814c0,0.582,0.072,1.236,0.219,1.963l-1.6,0.728
		c-0.971-0.532-1.879-1.259-2.727-2.182c-0.848-0.92-1.271-1.586-1.271-1.999c0-0.41,0.326-1.018,0.98-1.815
		c0.654-0.8,1.539-1.66,2.654-2.581c1.112-0.92,2.604-1.708,4.471-2.362c1.863-0.654,3.961-0.98,6.287-0.98s4.215,0.569,5.67,1.708
		c1.453,1.14,2.18,3.197,2.18,6.179c0,2.98,0.146,9.269,0.438,18.863c0.047,2.325,0.92,3.489,2.615,3.489
		c0.729,0,1.479-0.192,2.254-0.582l0.728,1.892C305.365,275.901,303.355,276.749,301.174,276.749z M286.781,263.083
		c-2.084,1.406-3.125,2.933-3.125,4.58c0,1.646,0.424,2.847,1.271,3.597c0.849,0.752,2.217,1.127,4.106,1.127
		c1.891,0,4.168-0.799,6.832-2.397v-9.159C291.895,260.928,288.865,261.679,286.781,263.083z"/>
	<path fill="#1F2020" d="M326.178,276.313c-2.326-0.146-4.99-0.219-7.994-0.219c-3.006,0-5.67,0.072-7.996,0.219l0.217-2.106
		c0.92-0.099,1.902-0.303,2.945-0.619c1.041-0.314,1.586-0.641,1.635-0.98c0.437-3.149,0.654-9.207,0.654-18.172
		c0-14.586-0.145-23.114-0.436-25.587l-0.146-1.235l-4.652-1.382l-0.145-1.89c3.1,0,6.299-0.437,9.596-1.309l1.381,0.653
		c-0.098,6.06-0.146,14.999-0.146,26.822v5.815l11.631-8.724c0.339-0.291,0.511-0.582,0.511-0.873c0-1.063-1.455-1.622-4.363-1.672
		l0.219-2.106c3.004,0.146,5.572,0.218,7.705,0.218s4.676-0.072,7.633-0.218l0.219,2.106c-2.957,0.438-5.524,1.432-7.705,2.98
		l-9.305,6.905l13.957,18.027c0.482,0.582,1.404,0.945,2.762,1.09c0.291,0,0.678,0.025,1.162,0.072
		c0.484,0.049,0.801,0.074,0.945,0.074l-0.219,2.106c-2.762,0-5.887,0.146-9.377,0.437l-13.447-18.753l-2.254,1.672
		c0.146,5.523,0.34,9.838,0.582,12.938c0.049,0.341,0.594,0.666,1.637,0.98c1.041,0.316,2.045,0.521,3.016,0.619L326.178,276.313z"
		/>
	<path fill="#1F2020" d="M365.648,276.749c-5.137,0-9.014-1.465-11.629-4.396c-2.617-2.932-3.926-6.833-3.926-11.704
		c0-4.87,1.441-9.087,4.324-12.647c2.883-3.562,7.231-5.343,13.049-5.343c2.955,0,5.535,1.043,7.74,3.126
		c2.205,2.084,3.309,5.186,3.309,9.304l-2.473,2.98c-0.291-0.049-2.58-0.072-6.869-0.072s-8.59,0.17-12.902,0.509v0.654
		c0,4.41,0.92,7.718,2.764,9.922c1.841,2.206,4.361,3.307,7.56,3.307c3.199,0,6.566-0.772,10.104-2.326l0.873,2.182
		C373.838,275.247,369.865,276.749,365.648,276.749z M371.973,252.834c0-2.229-0.631-3.889-1.889-4.979
		c-1.262-1.09-2.666-1.636-4.217-1.636c-2.279,0-4.24,0.897-5.89,2.69c-1.646,1.793-2.737,3.997-3.27,6.613l15.047-0.581
		C371.9,254.215,371.973,253.513,371.973,252.834z"/>
	<path fill="#1F2020" d="M404.902,242.222c0.388,0,1.027,0.569,1.927,1.708c0.896,1.14,1.489,2.267,1.78,3.38l-1.092,1.381
		c-1.744-0.678-3.561-1.018-5.451-1.018c-1.89,0-3.61,0.788-5.159,2.362c-1.554,1.575-2.326,4.106-2.326,7.597
		c0.047,8.529,0.266,13.496,0.653,14.902c0.048,0.387,0.738,0.737,2.07,1.053c1.332,0.316,2.728,0.521,4.18,0.619l-0.217,2.106
		c-2.326-0.146-5.271-0.219-8.832-0.219c-3.563,0-6.506,0.072-8.832,0.219l0.22-2.106c0.969-0.099,1.985-0.303,3.053-0.619
		c1.063-0.314,1.623-0.641,1.672-0.98c0.387-1.694,0.58-5.088,0.58-10.177c0-8.236-0.193-13.276-0.58-15.119l-4.652-1.381
		l-0.146-1.891c3.102,0,6.299-0.437,9.596-1.309l1.381,0.653c-0.098,0.729-0.145,2.715-0.145,5.961
		c1.403-2.326,3.186-4.095,5.342-5.307C402.078,242.828,403.738,242.222,404.902,242.222z"/>
</g>
<g>
	<g>
		<g>
			<path fill="#202121" d="M250,319.299v-94.368h-7.764C246.119,230.542,244.034,318.172,250,319.299z"/>
			<path fill="#202121" d="M250,319.299v-94.368h7.765C253.883,230.542,255.97,318.172,250,319.299z"/>
		</g>
		<line fill="none" stroke="#E0E1E2" stroke-width="0.2" stroke-miterlimit="10" x1="250" y1="224.931" x2="250" y2="319.299"/>
	</g>
	<path fill="#202121" d="M230.035,227.198c3.661-0.268,10.317-0.402,19.965-0.402s16.304,0.135,19.967,0.402v-1.005
		c0-3.529,0.269-6.813,0.803-9.849l-1.809-0.805c-1.162,3.661-2.547,5.985-4.152,6.969c-1.609,0.981-4.646,1.474-9.113,1.474
		c-1.34,0-2.076-0.603-2.212-1.809c-0.356-2.637-0.534-7.416-0.534-14.339c0-11.212,0.135-18.179,0.4-20.904l0.134-1.405
		c0.091-0.807,0.515-1.375,1.274-1.709c0.759-0.335,2.232-0.727,4.421-1.175l-0.2-1.94c-2.814,0.132-5.874,0.2-9.179,0.2
		c-3.307,0-6.365-0.068-9.179-0.2l-0.201,1.94c2.278,0.448,3.819,0.851,4.622,1.209c0.806,0.355,1.251,0.913,1.341,1.675
		c0.357,2.633,0.537,7.411,0.537,14.336c0,11.212-0.135,18.202-0.403,20.973l-0.134,1.34c-0.135,1.206-0.827,1.809-2.078,1.809
		c-4.466,0-7.503-0.492-9.11-1.474c-1.608-0.983-2.993-3.308-4.154-6.969l-1.81,0.805c0.536,3.035,0.805,6.319,0.805,9.849
		L230.035,227.198L230.035,227.198z"/>
</g>
<path fill="#202121" d="M250,250"/>
</svg>
